<svg width="790" height="62" viewBox="0 0 790 62" fill="none" xmlns="http://www.w3.org/2000/svg">
<g id="Hey, Yo soy Samuel Ovalle">
<path id="Vector" d="M775.17 48.7273C771.807 48.7273 768.905 47.9848 766.466 46.5C764.042 45 762.17 42.9091 760.852 40.2273C759.549 37.5303 758.898 34.3939 758.898 30.8182C758.898 27.2424 759.549 24.0909 760.852 21.3636C762.17 18.6212 764.004 16.4848 766.352 14.9545C768.716 13.4091 771.473 12.6364 774.625 12.6364C776.443 12.6364 778.239 12.9394 780.011 13.5454C781.784 14.1515 783.398 15.1364 784.852 16.5C786.307 17.8485 787.466 19.6364 788.33 21.8636C789.193 24.0909 789.625 26.8333 789.625 30.0909V32.3636H762.716V27.7273H784.17C784.17 25.7576 783.777 24 782.989 22.4545C782.216 20.9091 781.11 19.6894 779.67 18.7954C778.246 17.9015 776.564 17.4545 774.625 17.4545C772.489 17.4545 770.64 17.9848 769.08 19.0454C767.534 20.0909 766.345 21.4545 765.511 23.1363C764.678 24.8182 764.261 26.6212 764.261 28.5454V31.6364C764.261 34.2727 764.716 36.5076 765.625 38.3409C766.549 40.1591 767.83 41.5454 769.466 42.5C771.102 43.4394 773.004 43.9091 775.17 43.9091C776.58 43.9091 777.852 43.7121 778.989 43.3182C780.14 42.9091 781.133 42.303 781.966 41.5C782.799 40.6818 783.443 39.6667 783.898 38.4545L789.08 39.9091C788.534 41.6667 787.617 43.2121 786.33 44.5454C785.042 45.8636 783.451 46.8939 781.557 47.6364C779.663 48.3636 777.534 48.7273 775.17 48.7273Z" fill="white"/>
<path id="Vector_2" d="M750.71 1.45453V48H745.347V1.45453H750.71Z" fill="white"/>
<path id="Vector_3" d="M735.523 1.45453V48H730.159V1.45453H735.523Z" fill="white"/>
<path id="Vector_4" d="M704.369 48.8182C702.157 48.8182 700.15 48.4015 698.347 47.5682C696.544 46.7197 695.112 45.5 694.051 43.9091C692.991 42.303 692.46 40.3636 692.46 38.0909C692.46 36.0909 692.854 34.4697 693.642 33.2273C694.43 31.9697 695.483 30.9848 696.801 30.2727C698.119 29.5606 699.574 29.0303 701.165 28.6818C702.771 28.3182 704.384 28.0303 706.006 27.8182C708.127 27.5454 709.847 27.3409 711.165 27.2045C712.498 27.053 713.468 26.803 714.074 26.4545C714.695 26.106 715.006 25.5 715.006 24.6363V24.4545C715.006 22.2121 714.392 20.4697 713.165 19.2273C711.953 17.9848 710.112 17.3636 707.642 17.3636C705.081 17.3636 703.074 17.9242 701.619 19.0454C700.165 20.1667 699.142 21.3636 698.551 22.6363L693.46 20.8182C694.369 18.697 695.581 17.0454 697.097 15.8636C698.627 14.6667 700.294 13.8333 702.097 13.3636C703.915 12.8788 705.703 12.6364 707.46 12.6364C708.581 12.6364 709.869 12.7727 711.324 13.0454C712.794 13.303 714.21 13.8409 715.574 14.6591C716.953 15.4773 718.097 16.7121 719.006 18.3636C719.915 20.0151 720.369 22.2273 720.369 25V48H715.006V43.2727H714.733C714.369 44.0303 713.763 44.8409 712.915 45.7045C712.066 46.5682 710.937 47.303 709.528 47.9091C708.119 48.5151 706.4 48.8182 704.369 48.8182ZM705.188 44C707.309 44 709.097 43.5833 710.551 42.75C712.021 41.9167 713.127 40.8409 713.869 39.5227C714.627 38.2045 715.006 36.8182 715.006 35.3636V30.4545C714.778 30.7273 714.278 30.9773 713.506 31.2045C712.748 31.4167 711.869 31.606 710.869 31.7727C709.884 31.9242 708.922 32.0606 707.983 32.1818C707.059 32.2879 706.309 32.3788 705.733 32.4545C704.339 32.6364 703.036 32.9318 701.824 33.3409C700.627 33.7348 699.657 34.3333 698.915 35.1364C698.188 35.9242 697.824 37 697.824 38.3636C697.824 40.2273 698.513 41.6364 699.892 42.5909C701.286 43.5303 703.051 44 705.188 44Z" fill="white"/>
<path id="Vector_5" d="M688.08 13.0909L675.171 48H669.716L656.807 13.0909H662.625L672.261 40.9091H672.625L682.261 13.0909H688.08Z" fill="white"/>
<path id="Vector_6" d="M650.784 24.7273C650.784 29.6364 649.898 33.8788 648.125 37.4545C646.352 41.0303 643.92 43.7879 640.829 45.7273C637.739 47.6667 634.208 48.6364 630.239 48.6364C626.269 48.6364 622.739 47.6667 619.648 45.7273C616.557 43.7879 614.125 41.0303 612.352 37.4545C610.58 33.8788 609.693 29.6364 609.693 24.7273C609.693 19.8182 610.58 15.5758 612.352 12C614.125 8.42424 616.557 5.66666 619.648 3.72727C622.739 1.78787 626.269 0.818176 630.239 0.818176C634.208 0.818176 637.739 1.78787 640.829 3.72727C643.92 5.66666 646.352 8.42424 648.125 12C649.898 15.5758 650.784 19.8182 650.784 24.7273ZM645.329 24.7273C645.329 20.697 644.655 17.2955 643.307 14.5227C641.973 11.75 640.163 9.65151 637.875 8.22727C635.602 6.80303 633.057 6.0909 630.239 6.0909C627.42 6.0909 624.867 6.80303 622.579 8.22727C620.307 9.65151 618.496 11.75 617.148 14.5227C615.814 17.2955 615.148 20.697 615.148 24.7273C615.148 28.7576 615.814 32.1591 617.148 34.9318C618.496 37.7045 620.307 39.803 622.579 41.2273C624.867 42.6515 627.42 43.3636 630.239 43.3636C633.057 43.3636 635.602 42.6515 637.875 41.2273C640.163 39.803 641.973 37.7045 643.307 34.9318C644.655 32.1591 645.329 28.7576 645.329 24.7273Z" fill="white"/>
<path id="Vector_7" d="M582.96 1.45453V48H577.597V1.45453H582.96Z" fill="#F47DFF"/>
<path id="Vector_8" d="M554.983 48.7273C551.619 48.7273 548.718 47.9848 546.278 46.5C543.854 45 541.983 42.9091 540.665 40.2273C539.362 37.5303 538.71 34.3939 538.71 30.8182C538.71 27.2424 539.362 24.0909 540.665 21.3636C541.983 18.6212 543.816 16.4848 546.165 14.9545C548.528 13.4091 551.286 12.6364 554.438 12.6364C556.256 12.6364 558.051 12.9394 559.824 13.5454C561.597 14.1515 563.21 15.1364 564.665 16.5C566.119 17.8485 567.278 19.6364 568.142 21.8636C569.006 24.0909 569.438 26.8333 569.438 30.0909V32.3636H542.528V27.7273H563.983C563.983 25.7576 563.589 24 562.801 22.4545C562.028 20.9091 560.922 19.6894 559.483 18.7954C558.059 17.9015 556.377 17.4545 554.438 17.4545C552.301 17.4545 550.453 17.9848 548.892 19.0454C547.347 20.0909 546.157 21.4545 545.324 23.1363C544.491 24.8182 544.074 26.6212 544.074 28.5454V31.6364C544.074 34.2727 544.528 36.5076 545.438 38.3409C546.362 40.1591 547.642 41.5454 549.278 42.5C550.915 43.4394 552.816 43.9091 554.983 43.9091C556.392 43.9091 557.665 43.7121 558.801 43.3182C559.953 42.9091 560.945 42.303 561.778 41.5C562.612 40.6818 563.256 39.6667 563.71 38.4545L568.892 39.9091C568.347 41.6667 567.43 43.2121 566.142 44.5454C564.854 45.8636 563.263 46.8939 561.369 47.6364C559.475 48.3636 557.347 48.7273 554.983 48.7273Z" fill="#F47DFF"/>
<path id="Vector_9" d="M525.159 33.7273V13.0909H530.523V48H525.159V42.0909H524.795C523.977 43.8637 522.705 45.3712 520.977 46.6137C519.25 47.8409 517.068 48.4546 514.432 48.4546C512.25 48.4546 510.311 47.9773 508.614 47.0228C506.917 46.0531 505.583 44.5985 504.614 42.6591C503.644 40.7046 503.159 38.2425 503.159 35.2728V13.0909H508.523V34.9091C508.523 37.4546 509.235 39.4849 510.659 41C512.098 42.5152 513.932 43.2728 516.159 43.2728C517.492 43.2728 518.848 42.9319 520.227 42.25C521.621 41.5682 522.788 40.5228 523.727 39.1137C524.682 37.7046 525.159 35.9091 525.159 33.7273Z" fill="#F47DFF"/>
<path id="Vector_10" d="M447.534 48V13.0909H452.716V18.5454H453.17C453.898 16.6818 455.072 15.2348 456.693 14.2045C458.314 13.1591 460.261 12.6364 462.534 12.6364C464.837 12.6364 466.754 13.1591 468.284 14.2045C469.83 15.2348 471.034 16.6818 471.898 18.5454H472.261C473.155 16.7424 474.496 15.3106 476.284 14.25C478.072 13.1742 480.216 12.6364 482.716 12.6364C485.837 12.6364 488.39 13.6136 490.375 15.5682C492.36 17.5076 493.352 20.5303 493.352 24.6363V48H487.989V24.6363C487.989 22.0606 487.284 20.2197 485.875 19.1136C484.466 18.0076 482.807 17.4545 480.898 17.4545C478.443 17.4545 476.542 18.197 475.193 19.6818C473.845 21.1515 473.17 23.0151 473.17 25.2727V48H467.716V24.0909C467.716 22.106 467.072 20.5076 465.784 19.2954C464.496 18.0682 462.837 17.4545 460.807 17.4545C459.413 17.4545 458.11 17.8257 456.898 18.5682C455.701 19.3106 454.731 20.3409 453.989 21.6591C453.261 22.9621 452.898 24.4697 452.898 26.1818V48H447.534Z" fill="#F47DFF"/>
<path id="Vector_11" d="M421.744 48.8182C419.532 48.8182 417.525 48.4015 415.722 47.5682C413.919 46.7197 412.487 45.5 411.426 43.9091C410.366 42.303 409.835 40.3636 409.835 38.0909C409.835 36.0909 410.229 34.4697 411.017 33.2273C411.805 31.9697 412.858 30.9848 414.176 30.2727C415.494 29.5606 416.949 29.0303 418.54 28.6818C420.146 28.3182 421.759 28.0303 423.381 27.8182C425.502 27.5454 427.222 27.3409 428.54 27.2045C429.873 27.053 430.843 26.803 431.449 26.4545C432.07 26.106 432.381 25.5 432.381 24.6363V24.4545C432.381 22.2121 431.767 20.4697 430.54 19.2273C429.328 17.9848 427.487 17.3636 425.017 17.3636C422.456 17.3636 420.449 17.9242 418.994 19.0454C417.54 20.1667 416.517 21.3636 415.926 22.6363L410.835 20.8182C411.744 18.697 412.956 17.0454 414.472 15.8636C416.002 14.6667 417.669 13.8333 419.472 13.3636C421.29 12.8788 423.078 12.6364 424.835 12.6364C425.956 12.6364 427.244 12.7727 428.699 13.0454C430.169 13.303 431.585 13.8409 432.949 14.6591C434.328 15.4773 435.472 16.7121 436.381 18.3636C437.29 20.0151 437.744 22.2273 437.744 25V48H432.381V43.2727H432.108C431.744 44.0303 431.138 44.8409 430.29 45.7045C429.441 46.5682 428.312 47.303 426.903 47.9091C425.494 48.5151 423.775 48.8182 421.744 48.8182ZM422.562 44C424.684 44 426.472 43.5833 427.926 42.75C429.396 41.9167 430.502 40.8409 431.244 39.5227C432.002 38.2045 432.381 36.8182 432.381 35.3636V30.4545C432.153 30.7273 431.653 30.9773 430.881 31.2045C430.123 31.4167 429.244 31.606 428.244 31.7727C427.259 31.9242 426.297 32.0606 425.358 32.1818C424.434 32.2879 423.684 32.3788 423.108 32.4545C421.714 32.6364 420.411 32.9318 419.199 33.3409C418.002 33.7348 417.032 34.3333 416.29 35.1364C415.562 35.9242 415.199 37 415.199 38.3636C415.199 40.2273 415.888 41.6364 417.267 42.5909C418.661 43.5303 420.426 44 422.562 44Z" fill="#F47DFF"/>
<path id="Vector_12" d="M396.841 13.0909C396.568 10.7879 395.462 9 393.523 7.72727C391.583 6.45454 389.205 5.81818 386.386 5.81818C384.326 5.81818 382.523 6.15151 380.977 6.81818C379.447 7.48484 378.25 8.40151 377.386 9.56818C376.538 10.7348 376.114 12.0606 376.114 13.5454C376.114 14.7879 376.409 15.8561 377 16.75C377.606 17.6288 378.379 18.3636 379.318 18.9545C380.258 19.5303 381.242 20.0076 382.273 20.3864C383.303 20.75 384.25 21.0455 385.114 21.2727L389.841 22.5455C391.053 22.8636 392.402 23.303 393.886 23.8636C395.386 24.4242 396.818 25.1894 398.182 26.1591C399.561 27.1136 400.697 28.3409 401.591 29.8409C402.485 31.3409 402.932 33.1818 402.932 35.3636C402.932 37.8788 402.273 40.1515 400.955 42.1818C399.652 44.2121 397.742 45.8258 395.227 47.0227C392.727 48.2197 389.689 48.8182 386.114 48.8182C382.78 48.8182 379.894 48.2803 377.455 47.2045C375.03 46.1288 373.121 44.6288 371.727 42.7045C370.348 40.7803 369.568 38.5455 369.386 36H375.205C375.356 37.7576 375.947 39.2121 376.977 40.3636C378.023 41.5 379.341 42.3485 380.932 42.9091C382.538 43.4545 384.265 43.7273 386.114 43.7273C388.265 43.7273 390.197 43.3788 391.909 42.6818C393.621 41.9697 394.977 40.9848 395.977 39.7273C396.977 38.4545 397.477 36.9697 397.477 35.2727C397.477 33.7273 397.045 32.4697 396.182 31.5C395.318 30.5303 394.182 29.7424 392.773 29.1364C391.364 28.5303 389.841 28 388.205 27.5455L382.477 25.9091C378.841 24.8636 375.962 23.3712 373.841 21.4318C371.72 19.4924 370.659 16.9545 370.659 13.8182C370.659 11.2121 371.364 8.93939 372.773 7C374.197 5.04545 376.106 3.5303 378.5 2.45454C380.909 1.36363 383.598 0.818176 386.568 0.818176C389.568 0.818176 392.235 1.35605 394.568 2.43181C396.902 3.49242 398.75 4.94696 400.114 6.79545C401.492 8.64393 402.22 10.7424 402.295 13.0909H396.841Z" fill="#F47DFF"/>
<path id="Vector_13" d="M320.489 61.0909C319.58 61.0909 318.769 61.0152 318.057 60.8637C317.345 60.7273 316.852 60.5909 316.58 60.4546L317.943 55.7273C319.246 56.0606 320.398 56.1819 321.398 56.0909C322.398 56 323.284 55.5531 324.057 54.75C324.845 53.9622 325.564 52.6818 326.216 50.9091L327.216 48.1819L314.307 13.0909H320.125L329.761 40.9091H330.125L339.761 13.0909H345.58L330.761 53.0909C330.095 54.894 329.269 56.3864 328.284 57.5682C327.299 58.7652 326.155 59.6515 324.852 60.2273C323.564 60.8031 322.11 61.0909 320.489 61.0909Z" fill="white"/>
<path id="Vector_14" d="M294.278 48.7273C291.127 48.7273 288.362 47.9773 285.983 46.4773C283.619 44.9773 281.771 42.8788 280.437 40.1818C279.119 37.4848 278.46 34.3333 278.46 30.7273C278.46 27.0909 279.119 23.9167 280.437 21.2045C281.771 18.4924 283.619 16.3864 285.983 14.8864C288.362 13.3864 291.127 12.6364 294.278 12.6364C297.43 12.6364 300.187 13.3864 302.551 14.8864C304.93 16.3864 306.778 18.4924 308.097 21.2045C309.43 23.9167 310.097 27.0909 310.097 30.7273C310.097 34.3333 309.43 37.4848 308.097 40.1818C306.778 42.8788 304.93 44.9773 302.551 46.4773C300.187 47.9773 297.43 48.7273 294.278 48.7273ZM294.278 43.9091C296.672 43.9091 298.642 43.2954 300.187 42.0682C301.733 40.8409 302.877 39.2273 303.619 37.2273C304.362 35.2273 304.733 33.0606 304.733 30.7273C304.733 28.3939 304.362 26.2197 303.619 24.2045C302.877 22.1894 301.733 20.5606 300.187 19.3182C298.642 18.0757 296.672 17.4545 294.278 17.4545C291.884 17.4545 289.915 18.0757 288.369 19.3182C286.824 20.5606 285.68 22.1894 284.937 24.2045C284.195 26.2197 283.824 28.3939 283.824 30.7273C283.824 33.0606 284.195 35.2273 284.937 37.2273C285.68 39.2273 286.824 40.8409 288.369 42.0682C289.915 43.2954 291.884 43.9091 294.278 43.9091Z" fill="white"/>
<path id="Vector_15" d="M271.386 20.9091L266.568 22.2727C266.265 21.4697 265.818 20.6894 265.227 19.9318C264.652 19.1591 263.864 18.5227 262.864 18.0227C261.864 17.5227 260.583 17.2727 259.023 17.2727C256.886 17.2727 255.106 17.7651 253.682 18.75C252.273 19.7197 251.568 20.9545 251.568 22.4545C251.568 23.7879 252.053 24.8409 253.023 25.6136C253.992 26.3864 255.508 27.0303 257.568 27.5454L262.75 28.8182C265.871 29.5757 268.197 30.7348 269.727 32.2954C271.258 33.8409 272.023 35.8333 272.023 38.2727C272.023 40.2727 271.447 42.0606 270.295 43.6364C269.159 45.2121 267.568 46.4545 265.523 47.3636C263.477 48.2727 261.098 48.7273 258.386 48.7273C254.826 48.7273 251.879 47.9545 249.545 46.4091C247.212 44.8636 245.735 42.606 245.114 39.6364L250.205 38.3636C250.689 40.2424 251.606 41.6515 252.955 42.5909C254.318 43.5303 256.099 44 258.295 44C260.795 44 262.78 43.4697 264.25 42.4091C265.735 41.3333 266.477 40.0454 266.477 38.5454C266.477 37.3333 266.053 36.3182 265.205 35.5C264.356 34.6667 263.053 34.0454 261.295 33.6364L255.477 32.2727C252.28 31.5151 249.932 30.3409 248.432 28.75C246.947 27.1439 246.205 25.1364 246.205 22.7273C246.205 20.7576 246.758 19.0151 247.864 17.5C248.985 15.9848 250.508 14.7954 252.432 13.9318C254.371 13.0682 256.568 12.6364 259.023 12.6364C262.477 12.6364 265.189 13.3939 267.159 14.9091C269.144 16.4242 270.553 18.4242 271.386 20.9091Z" fill="white"/>
<path id="Vector_16" d="M204.653 48.7273C201.502 48.7273 198.737 47.9773 196.358 46.4773C193.994 44.9773 192.146 42.8788 190.812 40.1818C189.494 37.4848 188.835 34.3333 188.835 30.7273C188.835 27.0909 189.494 23.9167 190.812 21.2045C192.146 18.4924 193.994 16.3864 196.358 14.8864C198.737 13.3864 201.502 12.6364 204.653 12.6364C207.805 12.6364 210.562 13.3864 212.926 14.8864C215.305 16.3864 217.153 18.4924 218.472 21.2045C219.805 23.9167 220.472 27.0909 220.472 30.7273C220.472 34.3333 219.805 37.4848 218.472 40.1818C217.153 42.8788 215.305 44.9773 212.926 46.4773C210.562 47.9773 207.805 48.7273 204.653 48.7273ZM204.653 43.9091C207.047 43.9091 209.017 43.2954 210.562 42.0682C212.108 40.8409 213.252 39.2273 213.994 37.2273C214.737 35.2273 215.108 33.0606 215.108 30.7273C215.108 28.3939 214.737 26.2197 213.994 24.2045C213.252 22.1894 212.108 20.5606 210.562 19.3182C209.017 18.0757 207.047 17.4545 204.653 17.4545C202.259 17.4545 200.29 18.0757 198.744 19.3182C197.199 20.5606 196.055 22.1894 195.312 24.2045C194.57 26.2197 194.199 28.3939 194.199 30.7273C194.199 33.0606 194.57 35.2273 195.312 37.2273C196.055 39.2273 197.199 40.8409 198.744 42.0682C200.29 43.2954 202.259 43.9091 204.653 43.9091Z" fill="white"/>
<path id="Vector_17" d="M149.574 1.45453H156.028L168.937 23.1818H169.483L182.392 1.45453H188.847L172.028 28.8182V48H166.392V28.8182L149.574 1.45453Z" fill="white"/>
<path id="Vector_18" d="M124.909 41.6364L124.545 44.0909C124.288 45.8182 123.894 47.6667 123.364 49.6364C122.848 51.606 122.311 53.4621 121.75 55.2045C121.189 56.947 120.727 58.3333 120.364 59.3636H116.273C116.47 58.3939 116.727 57.1136 117.045 55.5227C117.364 53.9318 117.682 52.1515 118 50.1818C118.333 48.2273 118.606 46.2273 118.818 44.1818L119.091 41.6364H124.909Z" fill="white"/>
<path id="Vector_19" d="M86.9261 61.0909C86.0171 61.0909 85.2064 61.0152 84.4943 60.8637C83.7822 60.7273 83.2898 60.5909 83.0171 60.4546L84.3807 55.7273C85.6837 56.0606 86.8352 56.1819 87.8352 56.0909C88.8352 56 89.7216 55.5531 90.4943 54.75C91.2822 53.9622 92.0019 52.6818 92.6534 50.9091L93.6534 48.1819L80.7443 13.0909H86.5625L96.1989 40.9091H96.5625L106.199 13.0909H112.017L97.1989 53.0909C96.5322 54.894 95.7064 56.3864 94.7216 57.5682C93.7367 58.7652 92.5928 59.6515 91.2898 60.2273C90.0019 60.8031 88.5474 61.0909 86.9261 61.0909Z" fill="white"/>
<path id="Vector_20" d="M61.9204 48.7273C58.5568 48.7273 55.6553 47.9848 53.2159 46.5C50.7916 45 48.9204 42.9091 47.6022 40.2273C46.2992 37.5303 45.6477 34.3939 45.6477 30.8182C45.6477 27.2424 46.2992 24.0909 47.6022 21.3636C48.9204 18.6212 50.7538 16.4848 53.1022 14.9545C55.4659 13.4091 58.2235 12.6364 61.375 12.6364C63.1932 12.6364 64.9886 12.9394 66.7613 13.5454C68.5341 14.1515 70.1477 15.1364 71.6022 16.5C73.0568 17.8485 74.2159 19.6364 75.0795 21.8636C75.9432 24.0909 76.375 26.8333 76.375 30.0909V32.3636H49.4659V27.7273H70.9204C70.9204 25.7576 70.5265 24 69.7386 22.4545C68.9659 20.9091 67.8598 19.6894 66.4204 18.7954C64.9962 17.9015 63.3144 17.4545 61.375 17.4545C59.2386 17.4545 57.3901 17.9848 55.8295 19.0454C54.2841 20.0909 53.0947 21.4545 52.2613 23.1363C51.428 24.8182 51.0113 26.6212 51.0113 28.5454V31.6364C51.0113 34.2727 51.4659 36.5076 52.375 38.3409C53.2992 40.1591 54.5795 41.5454 56.2159 42.5C57.8523 43.4394 59.7538 43.9091 61.9204 43.9091C63.3295 43.9091 64.6023 43.7121 65.7386 43.3182C66.8901 42.9091 67.8826 42.303 68.7159 41.5C69.5492 40.6818 70.1932 39.6667 70.6477 38.4545L75.8295 39.9091C75.2841 41.6667 74.3674 43.2121 73.0795 44.5454C71.7916 45.8636 70.2007 46.8939 68.3068 47.6364C66.4129 48.3636 64.2841 48.7273 61.9204 48.7273Z" fill="white"/>
<path id="Vector_21" d="M0.636353 48V1.45453H6.27272V22.1818H31.0909V1.45453H36.7273V48H31.0909V27.1818H6.27272V48H0.636353Z" fill="white"/>
</g>
</svg>
